<svg width="1280" height="1280" viewBox="0 0 1280 1280" fill="none" xmlns="http://www.w3.org/2000/svg">
    <g clip-path="url(#clip0_1109_2)">
        <path d="M640 0C513.42 0 389.683 37.5353 284.435 107.859C179.188 178.184 97.1573 278.138 48.7172 395.083C0.27712 512.027 -12.397 640.71 12.2975 764.858C36.9921 889.006 97.9462 1003.04 187.452 1092.55C276.957 1182.05 390.995 1243.01 515.142 1267.7C639.29 1292.4 767.973 1279.72 884.918 1231.28C1001.86 1182.84 1101.82 1100.81 1172.14 995.565C1242.46 890.317 1280 766.58 1280 640C1280 470.261 1212.57 307.475 1092.55 187.452C972.525 67.4284 809.739 0 640 0V0ZM614.4 906.667L320 682.133L417.6 555.733L594.134 693.333L834.667 422.4L954.133 529.067L614.4 906.667Z" fill="#79C060"/>
    </g>
    <rect x="0.5" y="0.5" width="1279" height="1279" stroke="black"/>
    <defs>
        <clipPath id="clip0_1109_2">
            <rect width="1280" height="1280" fill="white"/>
        </clipPath>
    </defs>
</svg>
