<svg width="1280" height="1280" viewBox="0 0 1280 1280" fill="none" xmlns="http://www.w3.org/2000/svg">
    <path d="M640 0C513.42 0 389.683 37.5353 284.435 107.859C179.188 178.184 97.1574 278.138 48.7174 395.083C0.277301 512.027 -12.3968 640.71 12.2977 764.858C36.9922 889.005 97.9463 1003.04 187.452 1092.55C276.957 1182.05 390.995 1243.01 515.142 1267.7C639.29 1292.4 767.973 1279.72 884.917 1231.28C1001.86 1182.84 1101.82 1100.81 1172.14 995.565C1242.46 890.317 1280 766.58 1280 640C1279.81 470.32 1212.32 307.645 1092.34 187.663C972.355 67.6809 809.68 0.191172 640 0V0ZM640 1188.57C494.51 1188.57 354.979 1130.78 252.102 1027.9C149.225 925.021 91.4288 785.49 91.4288 640C91.4288 494.51 149.225 354.978 252.102 252.101C354.979 149.224 494.51 91.4286 640 91.4286V640L1027.71 1027.72C976.866 1078.75 916.439 1119.22 849.904 1146.83C783.368 1174.43 712.034 1188.62 640 1188.57V1188.57Z" fill="#ECBE1B"/>
</svg>
