<svg width="1281" height="1281" viewBox="0 0 1281 1281" fill="none" xmlns="http://www.w3.org/2000/svg">
<path d="M1254.24 1124.83C1271.38 1142 1281.01 1165.27 1281 1189.52C1280.99 1213.78 1271.35 1237.05 1254.2 1254.2C1237.05 1271.35 1213.78 1280.99 1189.52 1281C1165.27 1281.01 1142 1271.38 1124.83 1254.24L640.5 769.911L156.167 1254.24C139.002 1271.38 115.733 1281.01 91.4751 1281C67.217 1280.99 43.9549 1271.35 26.8018 1254.2C9.64876 1237.05 0.00850821 1213.78 5.62912e-06 1189.52C-0.00849696 1165.27 9.61544 1142 26.7565 1124.83L511.089 640.5L26.7565 156.167C9.61544 139.002 -0.00849696 115.733 5.62912e-06 91.4751C0.00850821 67.217 9.64876 43.9549 26.8018 26.8018C43.9549 9.64876 67.217 0.00850821 91.4751 5.62912e-06C115.733 -0.00849696 139.002 9.61544 156.167 26.7565L640.5 511.089L1124.83 26.7565C1142 9.61544 1165.27 -0.00849696 1189.52 5.62912e-06C1213.78 0.00850821 1237.05 9.64876 1254.2 26.8018C1271.35 43.9549 1280.99 67.217 1281 91.4751C1281.01 115.733 1271.38 139.002 1254.24 156.167L769.911 640.5L1254.24 1124.83Z" fill="#CE6A6A"/>
</svg>

