<svg width="1280" height="1280" viewBox="0 0 1280 1280" fill="none" xmlns="http://www.w3.org/2000/svg">
    <path d="M640 0C286.558 0 0 286.542 0 639.994C0 993.432 286.558 1280 640 1280C993.464 1280 1280 993.432 1280 639.994C1280 286.542 993.472 0 640 0ZM573.478 830.02C573.478 870.545 540.625 903.398 500.1 903.398C459.575 903.398 426.722 870.545 426.722 830.02V449.958C426.722 409.434 459.575 376.581 500.1 376.581C540.625 376.581 573.478 409.434 573.478 449.958V830.02ZM848.87 830.02C848.87 870.545 816.013 903.398 775.492 903.398C734.967 903.398 702.114 870.545 702.114 830.02V449.958C702.114 409.434 734.967 376.581 775.492 376.581C816.017 376.581 848.87 409.434 848.87 449.958V830.02Z" fill="#FA7D7D"/>
</svg>
